<svg width="64" height="64" viewBox="0 0 64 64" xmlns="http://www.w3.org/2000/svg" role="img" aria-label="Solyton sunflower favicon">
    <!-- Flower center -->
    <circle cx="32" cy="32" r="14" fill="#8B4513"/>

    <!-- Petals -->
    <g fill="#FFCA28" transform="translate(32,32)">
        <!-- Petals positioned outside the bigger center -->
        <ellipse cx="0" cy="-22" rx="6" ry="12" />
        <ellipse cx="0" cy="-22" rx="6" ry="12" transform="rotate(30)" />
        <ellipse cx="0" cy="-22" rx="6" ry="12" transform="rotate(60)" />
        <ellipse cx="0" cy="-22" rx="6" ry="12" transform="rotate(90)" />
        <ellipse cx="0" cy="-22" rx="6" ry="12" transform="rotate(120)" />
        <ellipse cx="0" cy="-22" rx="6" ry="12" transform="rotate(150)" />
        <ellipse cx="0" cy="-22" rx="6" ry="12" transform="rotate(180)" />
        <ellipse cx="0" cy="-22" rx="6" ry="12" transform="rotate(210)" />
        <ellipse cx="0" cy="-22" rx="6" ry="12" transform="rotate(240)" />
        <ellipse cx="0" cy="-22" rx="6" ry="12" transform="rotate(270)" />
        <ellipse cx="0" cy="-22" rx="6" ry="12" transform="rotate(300)" />
        <ellipse cx="0" cy="-22" rx="6" ry="12" transform="rotate(330)" />
    </g>
</svg>

